<svg width="24" height="24" viewBox="0 0 24 24" fill="none" xmlns="http://www.w3.org/2000/svg">
<g id="visibility_FILL0_wght400_GRAD0_opsz24 1">
<path id="Vector" d="M12 16C13.25 16 14.3125 15.5625 15.1875 14.6875C16.0625 13.8125 16.5 12.75 16.5 11.5C16.5 10.25 16.0625 9.1875 15.1875 8.3125C14.3125 7.4375 13.25 7 12 7C10.75 7 9.6875 7.4375 8.8125 8.3125C7.9375 9.1875 7.5 10.25 7.5 11.5C7.5 12.75 7.9375 13.8125 8.8125 14.6875C9.6875 15.5625 10.75 16 12 16ZM12 14.2C11.25 14.2 10.6125 13.9375 10.0875 13.4125C9.5625 12.8875 9.3 12.25 9.3 11.5C9.3 10.75 9.5625 10.1125 10.0875 9.5875C10.6125 9.0625 11.25 8.8 12 8.8C12.75 8.8 13.3875 9.0625 13.9125 9.5875C14.4375 10.1125 14.7 10.75 14.7 11.5C14.7 12.25 14.4375 12.8875 13.9125 13.4125C13.3875 13.9375 12.75 14.2 12 14.2ZM12 19C9.76667 19 7.72917 18.4 5.8875 17.2C4.04584 16 2.59167 14.4167 1.525 12.45C1.44167 12.3 1.37917 12.1458 1.3375 11.9875C1.29583 11.8292 1.275 11.6667 1.275 11.5C1.275 11.3333 1.29583 11.1708 1.3375 11.0125C1.37917 10.8542 1.44167 10.7 1.525 10.55C2.59167 8.58333 4.04584 7 5.8875 5.8C7.72917 4.6 9.76667 4 12 4C14.2333 4 16.2708 4.6 18.1125 5.8C19.9542 7 21.4083 8.58333 22.475 10.55C22.5583 10.7 22.6208 10.8542 22.6625 11.0125C22.7042 11.1708 22.725 11.3333 22.725 11.5C22.725 11.6667 22.7042 11.8292 22.6625 11.9875C22.6208 12.1458 22.5583 12.3 22.475 12.45C21.4083 14.4167 19.9542 16 18.1125 17.2C16.2708 18.4 14.2333 19 12 19ZM12 17C13.8833 17 15.6125 16.5042 17.1875 15.5125C18.7625 14.5208 19.9667 13.1833 20.8 11.5C19.9667 9.81667 18.7625 8.47917 17.1875 7.4875C15.6125 6.49583 13.8833 6 12 6C10.1167 6 8.3875 6.49583 6.8125 7.4875C5.2375 8.47917 4.03333 9.81667 3.2 11.5C4.03333 13.1833 5.2375 14.5208 6.8125 15.5125C8.3875 16.5042 10.1167 17 12 17Z" fill="#838383"/>
</g>
</svg>
